<svg width="80" height="80" viewBox="0 0 80 80" fill="none" xmlns="http://www.w3.org/2000/svg">
<rect width="80" height="80" rx="16" fill="#DBEAFE"/>
<g clip-path="url(#clip0)">
<path d="M47.5 27.5C47.5 23.3578 44.1422 20 40 20C35.8578 20 32.5 23.3578 32.5 27.5C32.5 31.6422 35.8578 35 40 35C44.1422 35 47.5 31.6422 47.5 27.5ZM38.2492 38.8359C33.6141 35.9984 26.1062 35.2188 22.3281 35.0039C21.0586 34.932 20 35.8992 20 37.1203V54.5266C20 55.6461 20.9055 56.5797 22.0695 56.6398C25.4805 56.8187 32.3812 57.4742 37.1508 59.8766C37.8828 60.2453 38.7508 59.743 38.7508 58.9492V39.7312C38.75 39.3664 38.5695 39.032 38.2492 38.8359ZM57.6719 35.0039C53.8945 35.218 46.3859 35.9984 41.7516 38.8359C41.4313 39.032 41.2508 39.3797 41.2508 39.7445V58.9469C41.2508 59.743 42.1211 60.2461 42.8555 59.8766C47.6242 57.4766 54.5211 56.8211 57.9312 56.6422C59.0953 56.5812 60.0008 55.6477 60.0008 54.5281V37.1203C60 35.8992 58.9414 34.932 57.6719 35.0039V35.0039Z" fill="#3B82F6"/>
</g>
<defs>
<clipPath id="clip0">
<rect width="40" height="40" fill="white" transform="translate(20 20)"/>
</clipPath>
</defs>
</svg>
