<svg width="140" height="140" viewBox="0 0 140 140" fill="none" xmlns="http://www.w3.org/2000/svg">
<rect width="140" height="140" rx="16" fill="#EDE9FE"/>
<g clip-path="url(#clip0)">
<path d="M101.121 82.8786C102.293 84.0502 102.293 85.9497 101.121 87.1212L91.1214 97.1192C89.2451 98.9955 86 97.6805 86 94.9979V90H78.6519C78.4462 90 78.2427 89.9577 78.0541 89.8757C77.8654 89.7937 77.6956 89.6738 77.5552 89.5235L68.7358 80.074L75.4024 72.9311L82 80H86V75.0024C86 72.3226 89.2429 71.0026 91.1214 72.881L101.121 82.8786ZM39.5 60H50L56.5976 67.0689L63.2642 59.926L54.4447 50.4765C54.3044 50.3261 54.1346 50.2062 53.946 50.1242C53.7573 50.0423 53.5538 50 53.3481 50H39.5C38.6716 50 38 50.6716 38 51.5V58.5C38 59.3284 38.6716 60 39.5 60ZM86 60V64.998C86 67.6805 89.2451 68.9955 91.1214 67.1194L101.121 57.1214C102.293 55.9497 102.293 54.0502 101.121 52.8787L91.1214 42.8811C89.2429 41.0026 86 42.3227 86 45.0024V50H78.6519C78.4462 50 78.2427 50.0423 78.0541 50.1243C77.8654 50.2063 77.6956 50.3261 77.5552 50.4765L50 80H39.5C38.6716 80 38 80.6716 38 81.5V88.5C38 89.3284 38.6716 90 39.5 90H53.3481C53.7639 90 54.161 89.8274 54.4447 89.5235L82 60H86Z" fill="#8B5CF6"/>
</g>
<defs>
<clipPath id="clip0">
<rect width="64" height="64" fill="white" transform="translate(38 38)"/>
</clipPath>
</defs>
</svg>
