<svg width="140" height="140" viewBox="0 0 140 140" fill="none" xmlns="http://www.w3.org/2000/svg">
<rect width="140" height="140" rx="16" fill="#E0E7FF"/>
<g clip-path="url(#clip0)">
<path d="M59.5 36.4C55.5756 36.4 52.3206 39.0906 51.3888 42.7263C51.2837 42.7263 51.205 42.7 51.1 42.7C46.4669 42.7 42.7 46.4669 42.7 51.1C42.7 51.73 42.7787 52.3469 42.9231 52.9375C39.0906 54.5125 36.4 58.2663 36.4 62.65C36.4 64.3038 36.82 65.8394 37.4894 67.2306C34.3394 69.0419 32.2 72.4019 32.2 76.3C32.2 80.6706 34.8775 84.4244 38.6838 85.9994C38.5656 86.6031 38.5 87.22 38.5 87.85C38.5 93.0738 42.7263 97.3 47.95 97.3C48.4881 97.3 49.0131 97.2344 49.525 97.1425C50.785 100.883 54.2762 103.6 58.45 103.6C63.6737 103.6 67.9 99.3738 67.9 94.15V44.8C67.9 40.1669 64.1331 36.4 59.5 36.4ZM107.8 76.3C107.8 72.4019 105.661 69.0419 102.511 67.2306C103.193 65.8394 103.6 64.3038 103.6 62.65C103.6 58.2663 100.909 54.5125 97.0769 52.9375C97.2081 52.3469 97.3 51.73 97.3 51.1C97.3 46.4669 93.5331 42.7 88.9 42.7C88.795 42.7 88.7031 42.7263 88.6112 42.7263C87.6794 39.0906 84.4244 36.4 80.5 36.4C75.8669 36.4 72.1 40.1538 72.1 44.8V94.15C72.1 99.3738 76.3262 103.6 81.55 103.6C85.7237 103.6 89.215 100.883 90.475 97.1425C90.9869 97.2344 91.5119 97.3 92.05 97.3C97.2737 97.3 101.5 93.0738 101.5 87.85C101.5 87.22 101.434 86.6031 101.316 85.9994C105.122 84.4244 107.8 80.6706 107.8 76.3Z" fill="#6366F1"/>
</g>
<defs>
<clipPath id="clip0">
<rect width="75.6" height="67.2" fill="white" transform="translate(32.2 36.4)"/>
</clipPath>
</defs>
</svg>
