<svg width="140" height="140" viewBox="0 0 140 140" fill="none" xmlns="http://www.w3.org/2000/svg">
<rect width="140" height="140" rx="16" fill="#ECFDF5"/>
<g clip-path="url(#clip0)">
<path d="M51.1 69.9992C47.3619 69.9992 43.7078 71.1077 40.5997 73.1844C37.4916 75.2612 35.0691 78.2129 33.6386 81.6665C32.2081 85.12 31.8338 88.9201 32.5631 92.5864C33.2924 96.2526 35.0924 99.6203 37.7356 102.264C40.3788 104.907 43.7465 106.707 47.4127 107.436C51.079 108.165 54.8791 107.791 58.3327 106.361C61.7862 104.93 64.738 102.508 66.8147 99.3995C68.8915 96.2914 70 92.6372 70 88.8992C70 83.8866 68.0087 79.0793 64.4643 75.5349C60.9198 71.9904 56.1125 69.9992 51.1 69.9992ZM107.062 61.8988L91.2728 34.8998C90.7861 34.0771 90.0935 33.3953 89.2631 32.9217C88.4328 32.4481 87.4934 32.199 86.5375 32.199C85.5815 32.199 84.6421 32.4481 83.8118 32.9217C82.9814 33.3953 82.2888 34.0771 81.8021 34.8998L66.0132 61.8988C63.9106 65.4986 66.5418 69.9992 70.7515 69.9992H102.323C106.533 69.9992 109.164 65.4986 107.062 61.8988ZM103.075 74.7242H79.45C78.1968 74.7242 76.995 75.222 76.1089 76.1081C75.2228 76.9942 74.725 78.196 74.725 79.4492V103.074C74.725 104.327 75.2228 105.529 76.1089 106.415C76.995 107.301 78.1968 107.799 79.45 107.799H103.075C104.328 107.799 105.53 107.301 106.416 106.415C107.302 105.529 107.8 104.327 107.8 103.074V79.4492C107.8 78.196 107.302 76.9942 106.416 76.1081C105.53 75.222 104.328 74.7242 103.075 74.7242Z" fill="#10B981"/>
</g>
<defs>
<clipPath id="clip0">
<rect width="75.6" height="75.6" fill="white" transform="translate(32.2 32.2)"/>
</clipPath>
</defs>
</svg>
