<svg width="80" height="80" viewBox="0 0 80 80" fill="none" xmlns="http://www.w3.org/2000/svg">
<rect width="80" height="80" fill="#D1D5DB"/>
<g clip-path="url(#clip0)">
<rect width="375" height="667" transform="translate(-44 -128)" fill="#F9FAFB"/>
<rect x="-24" y="-24" width="335" height="128" rx="16" fill="white"/>
<rect width="80" height="80" rx="16" fill="#FEF3C7"/>
<g clip-path="url(#clip1)">
<path d="M32.5875 48.3305C31.9086 47.6516 32.2625 47.843 30.625 47.4047C29.882 47.2055 29.2289 46.8227 28.6383 46.3641L25.0937 55.0547C24.7508 55.8961 25.3914 56.8102 26.2992 56.7758L30.4156 56.6188L33.2468 59.6094C33.8718 60.2688 34.9687 60.0633 35.3117 59.2219L39.3781 49.2516C38.5312 49.7235 37.5914 50 36.6195 50C35.0961 50 33.6648 49.4071 32.5875 48.3305V48.3305ZM54.9062 55.0547L51.3617 46.3641C50.7711 46.8235 50.1179 47.2055 49.375 47.4047C47.7289 47.8453 48.0898 47.6531 47.4125 48.3305C46.3351 49.4071 44.9031 50 43.3797 50C42.4078 50 41.4679 49.7227 40.6211 49.2516L44.6875 59.2219C45.0304 60.0633 46.1281 60.2688 46.7523 59.6094L49.5843 56.6188L53.7008 56.7758C54.6086 56.8102 55.2492 55.8953 54.9062 55.0547V55.0547ZM45.5468 46.5625C46.7406 45.3477 46.8773 45.4524 48.5773 44.9891C49.6625 44.693 50.5109 43.8297 50.8015 42.725C51.3859 40.5063 51.2343 40.7742 52.8289 39.1508C53.6234 38.3422 53.9336 37.1633 53.6429 36.0586C53.0593 33.8414 53.0586 34.1508 53.6429 31.9313C53.9336 30.8266 53.6234 29.6477 52.8289 28.8391C51.2343 27.2156 51.3859 27.4828 50.8015 25.2649C50.5109 24.1602 49.6625 23.2969 48.5773 23.0008C46.3992 22.4063 46.6617 22.5617 45.0656 20.9375C44.2711 20.1289 43.1125 19.8125 42.0273 20.1086C39.85 20.7024 40.1539 20.7031 37.9726 20.1086C36.8875 19.8125 35.7289 20.1281 34.9343 20.9375C33.3398 22.561 33.6023 22.4063 31.4234 23.0008C30.3383 23.2969 29.4898 24.1602 29.1992 25.2649C28.6156 27.4828 28.7664 27.2156 27.1718 28.8391C26.3773 29.6477 26.0664 30.8266 26.3578 31.9313C26.9414 34.1469 26.9422 33.8375 26.3578 36.0578C26.0672 37.1625 26.3773 38.3414 27.1718 39.1508C28.7664 40.7742 28.6148 40.5063 29.1992 42.725C29.4898 43.8297 30.3383 44.693 31.4234 44.9891C33.1718 45.4656 33.3023 45.3906 34.4531 46.5625C35.4867 47.6149 37.0968 47.8031 38.339 47.0172C38.8358 46.7019 39.412 46.5344 40.0004 46.5344C40.5887 46.5344 41.165 46.7019 41.6617 47.0172C42.9031 47.8031 44.5133 47.6149 45.5468 46.5625ZM32.6297 33.7469C32.6297 29.6039 35.9297 26.2453 40 26.2453C44.0703 26.2453 47.3703 29.6039 47.3703 33.7469C47.3703 37.8899 44.0703 41.2485 40 41.2485C35.9297 41.2485 32.6297 37.8899 32.6297 33.7469V33.7469Z" fill="#FBBF24"/>
</g>
</g>
<defs>
<clipPath id="clip0">
<rect width="375" height="667" fill="white" transform="translate(-44 -128)"/>
</clipPath>
<clipPath id="clip1">
<rect width="30" height="40" fill="white" transform="translate(25 20)"/>
</clipPath>
</defs>
</svg>
