<svg width="80" height="80" viewBox="0 0 80 80" fill="none" xmlns="http://www.w3.org/2000/svg">
<rect width="80" height="80" fill="#D1D5DB"/>
<g clip-path="url(#clip0)">
<rect width="375" height="667" transform="translate(-44 -432)" fill="#F9FAFB"/>
<rect x="-24" y="-24" width="335" height="128" rx="16" fill="white"/>
<rect width="80" height="80" rx="16" fill="#ECFDF5"/>
<path d="M59.375 40C59.375 50.7005 50.7005 59.375 40 59.375C29.2995 59.375 20.625 50.7005 20.625 40C20.625 29.2995 29.2995 20.625 40 20.625C50.7005 20.625 59.375 29.2995 59.375 40ZM37.7589 50.2589L52.1339 35.8839C52.622 35.3958 52.622 34.6043 52.1339 34.1162L50.3662 32.3484C49.878 31.8602 49.0866 31.8602 48.5984 32.3484L36.875 44.0717L31.4016 38.5984C30.9135 38.1102 30.122 38.1102 29.6338 38.5984L27.8661 40.3661C27.378 40.8542 27.378 41.6457 27.8661 42.1338L35.9911 50.2588C36.4793 50.747 37.2707 50.747 37.7589 50.2589V50.2589Z" fill="#10B981"/>
</g>
<defs>
<clipPath id="clip0">
<rect width="375" height="667" fill="white" transform="translate(-44 -432)"/>
</clipPath>
</defs>
</svg>
