<svg width="120" height="120" viewBox="0 0 120 120" fill="none" xmlns="http://www.w3.org/2000/svg">
<rect width="120" height="120" rx="16" fill="#FEE2E2"/>
<g clip-path="url(#clip0)">
<path d="M82.875 33.75H34.125C31.0195 33.75 28.5 36.2695 28.5 39.375V80.625C28.5 83.7305 31.0195 86.25 34.125 86.25H82.875C85.9805 86.25 88.5 83.7305 88.5 80.625V39.375C88.5 36.2695 85.9805 33.75 82.875 33.75ZM73.0781 67.793C73.6406 68.3555 73.6406 69.2695 73.0781 69.832L68.332 74.5781C67.7695 75.1406 66.8555 75.1406 66.293 74.5781L58.5 66.7148L50.707 74.5781C50.1445 75.1406 49.2305 75.1406 48.668 74.5781L43.9219 69.832C43.3594 69.2695 43.3594 68.3555 43.9219 67.793L51.7852 60L43.9219 52.207C43.3594 51.6445 43.3594 50.7305 43.9219 50.168L48.668 45.4219C49.2305 44.8594 50.1445 44.8594 50.707 45.4219L58.5 53.2852L66.293 45.4219C66.8555 44.8594 67.7695 44.8594 68.332 45.4219L73.0781 50.168C73.6406 50.7305 73.6406 51.6445 73.0781 52.207L65.2148 60L73.0781 67.793Z" fill="#EF4444"/>
</g>
<defs>
<clipPath id="clip0">
<rect width="60" height="60" fill="white" transform="translate(28.5 30)"/>
</clipPath>
</defs>
</svg>
